<svg width="80" height="80" viewBox="0 0 151 119" fill="none" xmlns="http://www.w3.org/2000/svg">
<path d="M34.664 43.608C34.664 41.816 34.1307 40.3653 33.064 39.256C31.9973 38.104 30.6533 37.1013 29.032 36.248C27.4533 35.352 25.7253 34.52 23.848 33.752C21.9707 32.984 20.2213 32.0667 18.6 31C17.0213 29.8907 15.6987 28.5467 14.632 26.968C13.5653 25.3467 13.032 23.2987 13.032 20.824C13.032 17.3253 14.248 14.552 16.68 12.504C19.112 10.456 22.568 9.432 27.048 9.432C29.6507 9.432 32.0187 9.624 34.152 10.008C36.2853 10.392 37.9493 10.8827 39.144 11.48L37.544 16.152C36.5627 15.6827 35.112 15.2347 33.192 14.808C31.3147 14.3813 29.1813 14.168 26.792 14.168C23.976 14.168 21.864 14.808 20.456 16.088C19.048 17.3253 18.344 18.7973 18.344 20.504C18.344 22.168 18.8773 23.5547 19.944 24.664C21.0107 25.7733 22.3333 26.776 23.912 27.672C25.5333 28.5253 27.2827 29.3787 29.16 30.232C31.0373 31.0853 32.7653 32.088 34.344 33.24C35.9653 34.3493 37.3093 35.6933 38.376 37.272C39.4427 38.8507 39.976 40.8133 39.976 43.16C39.976 45.08 39.6347 46.808 38.952 48.344C38.2693 49.88 37.2667 51.2027 35.944 52.312C34.6213 53.4213 33.0213 54.2747 31.144 54.872C29.2667 55.4693 27.1333 55.768 24.744 55.768C21.544 55.768 18.8987 55.512 16.808 55C14.7173 54.5307 13.096 53.9973 11.944 53.4L13.736 48.6C14.7173 49.1547 16.168 49.7093 18.088 50.264C20.008 50.776 22.1627 51.032 24.552 51.032C25.96 51.032 27.2827 50.904 28.52 50.648C29.7573 50.3493 30.824 49.9013 31.72 49.304C32.616 48.664 33.32 47.8747 33.832 46.936C34.3867 45.9973 34.664 44.888 34.664 43.608ZM47.416 25.368C49.0373 24.3867 50.9147 23.6613 53.048 23.192C55.224 22.7227 57.4853 22.488 59.832 22.488C62.0507 22.488 63.8213 22.7867 65.144 23.384C66.5093 23.9813 67.5333 24.7707 68.216 25.752C68.9413 26.6907 69.4107 27.736 69.624 28.888C69.88 30.04 70.008 31.192 70.008 32.344C70.008 34.904 69.944 37.4 69.816 39.832C69.688 42.264 69.624 44.568 69.624 46.744C69.624 48.3227 69.688 49.816 69.816 51.224C69.944 52.632 70.1787 53.9333 70.52 55.128H66.744L65.4 50.648H65.08C64.696 51.2453 64.2053 51.8427 63.608 52.44C63.0533 52.9947 62.3707 53.5067 61.56 53.976C60.7493 54.4027 59.8107 54.7653 58.744 55.064C57.6773 55.3627 56.4613 55.512 55.096 55.512C53.7307 55.512 52.4507 55.2987 51.256 54.872C50.104 54.4453 49.1013 53.848 48.248 53.08C47.3947 52.2693 46.712 51.3093 46.2 50.2C45.7307 49.0907 45.496 47.832 45.496 46.424C45.496 44.5467 45.88 42.9893 46.648 41.752C47.416 40.472 48.4827 39.4693 49.848 38.744C51.256 37.976 52.92 37.4427 54.84 37.144C56.8027 36.8027 58.9573 36.632 61.304 36.632C61.9013 36.632 62.4773 36.632 63.032 36.632C63.6293 36.632 64.2267 36.6747 64.824 36.76C64.952 35.48 65.016 34.328 65.016 33.304C65.016 30.9573 64.5467 29.3147 63.608 28.376C62.6693 27.4373 60.9627 26.968 58.488 26.968C57.7627 26.968 56.9733 27.032 56.12 27.16C55.3093 27.2453 54.456 27.3947 53.56 27.608C52.7067 27.7787 51.8747 28.0133 51.064 28.312C50.296 28.568 49.6133 28.8667 49.016 29.208L47.416 25.368ZM56.504 51.032C57.6987 51.032 58.7653 50.8827 59.704 50.584C60.6427 50.2427 61.4533 49.8373 62.136 49.368C62.8187 48.856 63.3733 48.3013 63.8 47.704C64.2693 47.1067 64.6107 46.5307 64.824 45.976V40.664C64.2267 40.6213 63.608 40.6 62.968 40.6C62.3707 40.5573 61.7733 40.536 61.176 40.536C59.8533 40.536 58.552 40.6213 57.272 40.792C56.0347 40.92 54.9253 41.1973 53.944 41.624C53.0053 42.008 52.2373 42.5627 51.64 43.288C51.0853 43.9707 50.808 44.8453 50.808 45.912C50.808 47.4053 51.3413 48.6427 52.408 49.624C53.4747 50.5627 54.84 51.032 56.504 51.032ZM100.222 55V36.76C100.222 33.432 99.7313 30.936 98.75 29.272C97.8113 27.5653 96.062 26.712 93.502 26.712C91.2407 26.712 89.3633 27.3307 87.87 28.568C86.4193 29.7627 85.3953 31.2773 84.798 33.112V55H79.678V23H83.262L84.222 26.904H84.478C85.502 25.5387 86.8673 24.4293 88.574 23.576C90.3233 22.68 92.3927 22.232 94.782 22.232C96.5313 22.232 98.0673 22.4453 99.39 22.872C100.713 23.256 101.801 23.96 102.654 24.984C103.55 26.008 104.211 27.3947 104.638 29.144C105.107 30.8507 105.342 33.0267 105.342 35.672V55H100.222Z" fill="black"/>
<path d="M33.168 59.2H38.48V94.144C38.48 97.5573 37.712 100.16 36.176 101.952C34.6827 103.744 32.4 104.64 29.328 104.64C28.9867 104.64 28.56 104.619 28.048 104.576C27.536 104.533 27.024 104.469 26.512 104.384C26 104.299 25.5093 104.192 25.04 104.064C24.528 103.936 24.1227 103.787 23.824 103.616L24.848 99.072C26.0427 99.6267 27.344 99.904 28.752 99.904C30.544 99.904 31.7173 99.2853 32.272 98.048C32.8693 96.768 33.168 95.04 33.168 92.864V59.2ZM49.041 74.368C50.6623 73.3867 52.5397 72.6613 54.673 72.192C56.849 71.7227 59.1103 71.488 61.457 71.488C63.6757 71.488 65.4463 71.7867 66.769 72.384C68.1343 72.9813 69.1583 73.7707 69.841 74.752C70.5663 75.6907 71.0357 76.736 71.249 77.888C71.505 79.04 71.633 80.192 71.633 81.344C71.633 83.904 71.569 86.4 71.441 88.832C71.313 91.264 71.249 93.568 71.249 95.744C71.249 97.3227 71.313 98.816 71.441 100.224C71.569 101.632 71.8037 102.933 72.145 104.128H68.369L67.025 99.648H66.705C66.321 100.245 65.8303 100.843 65.233 101.44C64.6783 101.995 63.9957 102.507 63.185 102.976C62.3743 103.403 61.4357 103.765 60.369 104.064C59.3023 104.363 58.0863 104.512 56.721 104.512C55.3557 104.512 54.0757 104.299 52.881 103.872C51.729 103.445 50.7263 102.848 49.873 102.08C49.0197 101.269 48.337 100.309 47.825 99.2C47.3557 98.0907 47.121 96.832 47.121 95.424C47.121 93.5467 47.505 91.9893 48.273 90.752C49.041 89.472 50.1077 88.4693 51.473 87.744C52.881 86.976 54.545 86.4427 56.465 86.144C58.4277 85.8027 60.5823 85.632 62.929 85.632C63.5263 85.632 64.1023 85.632 64.657 85.632C65.2543 85.632 65.8517 85.6747 66.449 85.76C66.577 84.48 66.641 83.328 66.641 82.304C66.641 79.9573 66.1717 78.3147 65.233 77.376C64.2943 76.4373 62.5877 75.968 60.113 75.968C59.3877 75.968 58.5983 76.032 57.745 76.16C56.9343 76.2453 56.081 76.3947 55.185 76.608C54.3317 76.7787 53.4997 77.0133 52.689 77.312C51.921 77.568 51.2383 77.8667 50.641 78.208L49.041 74.368ZM58.129 100.032C59.3237 100.032 60.3903 99.8827 61.329 99.584C62.2677 99.2427 63.0783 98.8373 63.761 98.368C64.4437 97.856 64.9983 97.3013 65.425 96.704C65.8943 96.1067 66.2357 95.5307 66.449 94.976V89.664C65.8517 89.6213 65.233 89.6 64.593 89.6C63.9957 89.5573 63.3983 89.536 62.801 89.536C61.4783 89.536 60.177 89.6213 58.897 89.792C57.6597 89.92 56.5503 90.1973 55.569 90.624C54.6303 91.008 53.8623 91.5627 53.265 92.288C52.7103 92.9707 52.433 93.8453 52.433 94.912C52.433 96.4053 52.9663 97.6427 54.033 98.624C55.0997 99.5627 56.465 100.032 58.129 100.032ZM90.711 92.736L92.503 98.88H92.823L94.231 92.672L100.439 72H105.623L96.151 100.736C95.4257 102.827 94.7003 104.853 93.975 106.816C93.2923 108.779 92.5243 110.528 91.671 112.064C90.8177 113.6 89.8577 114.816 88.791 115.712C87.7243 116.651 86.487 117.12 85.079 117.12C83.543 117.12 82.2843 116.907 81.303 116.48L82.199 112.064C82.7537 112.277 83.287 112.384 83.799 112.384C84.9937 112.384 86.1457 111.744 87.255 110.464C88.3643 109.227 89.2817 107.072 90.007 104L77.143 72H83.031L90.711 92.736Z" fill="black"/>
<path d="M12 61H107" stroke="black" stroke-width="5"/>
<line x1="82.032" y1="114.5" x2="4.03205" y2="115.5" stroke="black" stroke-width="5"/>
<path d="M82.1138 116.671C82.1202 116.408 82.2374 116.215 82.2722 115.972C82.3011 115.769 82.2361 115.593 82.3529 115.41C82.4858 115.201 82.5718 114.622 82.4845 114.382C82.4142 114.188 82.3828 114.089 82.3828 113.873C82.3828 113.718 82.3864 113.474 82.3171 113.335C82.1862 113.073 82.1676 112.833 82.1676 112.528" stroke="black" stroke-linecap="round" stroke-linejoin="round"/>
<path d="M82.3828 112.582C82.8462 112.508 83.1739 112.596 83.6324 112.678C83.9043 112.726 84.1973 112.702 84.4515 112.821C84.6521 112.915 85.088 112.888 85.3214 112.902C85.688 112.924 86.0511 112.959 86.4185 112.959" stroke="black" stroke-linecap="round" stroke-linejoin="round"/>
<line x1="4.50009" y1="118.021" x2="3.50849" y2="0.0209372" stroke="black" stroke-width="5"/>
<path d="M117 115L117 2" stroke="black" stroke-width="5"/>
<line x1="0.995965" y1="2.69529" x2="119.996" y2="2.50323" stroke="black" stroke-width="5"/>
<line x1="117" y1="112" x2="151" y2="112" stroke="black" stroke-width="6"/>
<line x1="118.712" y1="111.059" x2="146.712" y2="78.0591" stroke="black" stroke-width="6"/>
</svg>
